<svg width="51" height="29" viewBox="0 0 51 29" fill="none" xmlns="http://www.w3.org/2000/svg">
<g clip-path="url(#clip0_345_679)">
<path d="M50.475 0.0537109H0.489746V28.8703H50.475V0.0537109Z" fill="white"/>
<path d="M7.117 8.04199L4.8241 13.3674H6.31818L6.74717 12.3023H9.20279L9.617 13.3674H11.1407L8.84776 8.04199H7.117ZM7.96019 9.2698L8.71463 11.1337H7.22055L7.96019 9.2698Z" fill="#016FD0"/>
<path d="M11.3034 13.3525V8.0271L13.4188 8.04189L14.6466 11.4738L15.8448 8.04189H17.9454V13.3673H16.6141V9.43242L15.2087 13.3525H14.0401L12.62 9.43242V13.3525H11.3034Z" fill="#016FD0"/>
<path d="M18.8625 13.3525V8.0271H23.1969V9.21053H20.1939V10.1277H23.1229V11.252H20.1939V12.1987H23.1969V13.3525H18.8625Z" fill="#016FD0"/>
<path d="M23.9661 8.04199V13.3674H25.2975V11.4739H25.8596L27.4572 13.3674H29.0845L27.3389 11.4C28.0638 11.3408 28.8034 10.7195 28.8034 9.77276C28.8034 8.6485 27.9306 8.04199 26.9395 8.04199H23.9661ZM25.2975 9.22542H26.8212C27.191 9.22542 27.4572 9.50649 27.4572 9.78755C27.4572 10.1426 27.117 10.3497 26.8507 10.3497H25.3123V9.22542H25.2975Z" fill="#016FD0"/>
<path d="M30.6969 13.3525H29.3359V8.0271H30.6969V13.3525Z" fill="#016FD0"/>
<path d="M33.9069 13.3526H33.6111C32.1909 13.3526 31.3329 12.2284 31.3329 10.7195C31.3329 9.16625 32.1909 8.04199 33.9809 8.04199H35.4454V9.29939H33.9217C33.1969 9.29939 32.6791 9.86152 32.6791 10.7343C32.6791 11.7698 33.2708 12.1988 34.114 12.1988H34.469L33.9069 13.3526Z" fill="#016FD0"/>
<path d="M36.8063 8.04199L34.5134 13.3674H36.0075L36.4365 12.3023H38.8921L39.3063 13.3674H40.83L38.5371 8.04199H36.8063ZM37.6495 9.2698L38.404 11.1337H36.9099L37.6495 9.2698Z" fill="#016FD0"/>
<path d="M40.9779 13.3525V8.0271H42.6643L44.8241 11.3703V8.04189H46.1554V13.3673H44.5134L42.2945 9.93538V13.3673H40.9779V13.3525Z" fill="#016FD0"/>
<path d="M10.2087 20.9414V15.616H14.543V16.7994H11.54V17.7166H14.469V18.8408H11.54V19.7876H14.543V20.9414H10.2087Z" fill="#016FD0"/>
<path d="M31.4809 20.9414V15.616H35.8152V16.7994H32.8123V17.7166H35.7265V18.8408H32.8123V19.7876H35.8152V20.9414H31.4809Z" fill="#016FD0"/>
<path d="M14.7205 20.9414L16.8359 18.3083L14.6761 15.616H16.3477L17.6347 17.2876L18.9217 15.616H20.5341L18.404 18.2787L20.5193 20.9414H18.8477L17.5903 19.2994L16.3625 20.9414H14.7205Z" fill="#016FD0"/>
<path d="M20.6821 15.6306V20.9561H22.043V19.2697H23.4483C24.6318 19.2697 25.5341 18.6484 25.5341 17.4206C25.5341 16.4146 24.8241 15.6306 23.6259 15.6306H20.6821ZM22.043 16.8288H23.5223C23.9069 16.8288 24.1732 17.0655 24.1732 17.4353C24.1732 17.7904 23.9069 18.0419 23.5075 18.0419H22.043V16.8288Z" fill="#016FD0"/>
<path d="M26.0963 15.6306V20.9561H27.4276V19.0626H27.9897L29.5874 20.9561H31.2146L29.469 18.9886C30.1939 18.9294 30.9335 18.3081 30.9335 17.3614C30.9335 16.2371 30.0608 15.6306 29.0696 15.6306H26.0963ZM27.4276 16.814H28.9513C29.3211 16.814 29.5874 17.0951 29.5874 17.3762C29.5874 17.7312 29.2471 17.9383 28.9809 17.9383H27.4424V16.814H27.4276Z" fill="#016FD0"/>
<path d="M36.4365 20.9413V19.7874H39.0992C39.4987 19.7874 39.6614 19.5803 39.6614 19.3436C39.6614 19.1217 39.4987 18.8998 39.0992 18.8998H37.901C36.8507 18.8998 36.2738 18.2638 36.2738 17.3022C36.2738 16.4442 36.8063 15.6306 38.3596 15.6306H40.9484L40.3862 16.8288H38.1525C37.7235 16.8288 37.5904 17.0507 37.5904 17.2726C37.5904 17.4945 37.7531 17.7312 38.0785 17.7312H39.3359C40.5046 17.7312 41.0075 18.3969 41.0075 19.2549C41.0075 20.1868 40.4454 20.9413 39.2768 20.9413H36.4365Z" fill="#016FD0"/>
<path d="M41.3182 20.9413V19.7874H43.9809C44.3803 19.7874 44.543 19.5803 44.543 19.3436C44.543 19.1217 44.3803 18.8998 43.9809 18.8998H42.7827C41.7324 18.8998 41.1555 18.2638 41.1555 17.3022C41.1555 16.4442 41.688 15.6306 43.2413 15.6306H45.83L45.2679 16.8288H43.0342C42.6052 16.8288 42.472 17.0507 42.472 17.2726C42.472 17.4945 42.6347 17.7312 42.9602 17.7312H44.2176C45.3862 17.7312 45.8892 18.3969 45.8892 19.2549C45.8892 20.1868 45.3271 20.9413 44.1584 20.9413H41.3182Z" fill="#016FD0"/>
</g>
<defs>
<clipPath id="clip0_345_679">
<rect x="0.474976" y="0.0241699" width="50" height="28.8462" rx="5" fill="white"/>
</clipPath>
</defs>
</svg>
