<svg width="70" height="59" viewBox="0 0 70 59" fill="none" xmlns="http://www.w3.org/2000/svg">
<path d="M52.7425 19.3211C52.7425 8.65726 40.9463 0 26.3803 0C11.7993 0 0 8.65726 0 19.3211C0 25.8877 4.49678 31.6581 11.3277 35.1547L4.77919 47.6029L18.9817 37.7831C21.3428 38.2907 23.8 38.6512 26.3803 38.6512C40.9492 38.6512 52.7425 29.9969 52.7425 19.3211ZM18.0955 21.4178H12.5263V15.8455H18.0955V21.4178ZM34.9955 15.8455H40.5647V21.4178H34.9955V15.8455ZM23.7609 15.8455H29.3272V21.4178H23.7609V15.8455Z" fill="#393939"/>
<path d="M65.997 30.3028C65.997 24.2387 61.3261 18.9778 54.4771 16.3318C54.815 17.5768 54.9969 18.8686 54.9969 20.1994C54.9969 31.1371 42.9104 40.0109 27.975 40.0109C27.7904 40.0109 27.619 39.9718 27.437 39.9718C31.3749 43.6914 37.5222 46.0931 44.444 46.0931C46.5545 46.0931 48.5587 45.7993 50.4872 45.3886L62.1007 53.4073L56.7437 43.2417C62.3269 40.3801 65.997 35.665 65.997 30.3028Z" fill="#393939"/>
</svg>
