<svg width="32" height="33" viewBox="0 0 32 33" fill="none" xmlns="http://www.w3.org/2000/svg">
<g clip-path="url(#clip0_345_761)">
<path d="M32 16.4473C32 7.6107 24.8366 0.447266 16 0.447266C7.16344 0.447266 0 7.6107 0 16.4473C0 24.4332 5.85094 31.0526 13.5 32.2529V21.0723H9.4375V16.4473H13.5V12.9223C13.5 8.91227 15.8888 6.69727 19.5434 6.69727C21.2934 6.69727 23.125 7.00977 23.125 7.00977V10.9473H21.1075C19.12 10.9473 18.5 12.1807 18.5 13.4473V16.4473H22.9375L22.2281 21.0723H18.5V32.2529C26.1491 31.0526 32 24.4332 32 16.4473Z" fill="#BDE031"/>
<path d="M22.2281 21.0723L22.9375 16.4473H18.5V13.4473C18.5 12.182 19.12 10.9473 21.1075 10.9473H23.125V7.00977C23.125 7.00977 21.2941 6.69727 19.5434 6.69727C15.8888 6.69727 13.5 8.91227 13.5 12.9223V16.4473H9.4375V21.0723H13.5V32.2529C15.1566 32.5121 16.8434 32.5121 18.5 32.2529V21.0723H22.2281Z" fill="#393939"/>
</g>
<defs>
<clipPath id="clip0_345_761">
<rect width="32" height="32" fill="white" transform="translate(0 0.447266)"/>
</clipPath>
</defs>
</svg>
