<svg width="60" height="61" viewBox="0 0 60 61" fill="none" xmlns="http://www.w3.org/2000/svg">
<path d="M0 3.48071C0 1.82386 1.34315 0.480713 3 0.480713H57C58.6569 0.480713 60 1.82386 60 3.48071V57.4807C60 59.1376 58.6569 60.4807 57 60.4807H3C1.34315 60.4807 0 59.1376 0 57.4807V3.48071Z" fill="#393939"/>
<path d="M0 3.48071C0 1.82386 1.34315 0.480713 3 0.480713H57C58.6569 0.480713 60 1.82386 60 3.48071V57.4807C60 59.1376 58.6569 60.4807 57 60.4807H3C1.34315 60.4807 0 59.1376 0 57.4807V3.48071Z" stroke="#D6D6D6"/>
</svg>
