<svg width="104" height="45" viewBox="0 0 104 45" fill="none" xmlns="http://www.w3.org/2000/svg">
<g clip-path="url(#clip0_318_46937)">
<path fill-rule="evenodd" clip-rule="evenodd" d="M84.5039 6.09113L77.0088 13.5862C77.2126 13.9485 77.3711 14.3108 77.5296 14.6957L83.7793 8.44607V10.8916H85.0926V8.33285L92.3159 15.5562L91.297 16.5751L91.8631 17.1412L92.882 16.1223L100.762 24.0023H98.2486V25.3156H101.283L93.3802 33.1956L92.4291 32.2672L91.8631 32.8333L92.7914 33.7617L85.0473 41.5058V38.4036H83.734V41.3926L79.5675 37.2488L78.7524 38.064L84.4359 43.7475L103.253 24.9306L84.5039 6.09113ZM84.5039 42.0945L84.3453 41.936H84.6397L84.5039 42.0945Z" fill="#BDE031"/>
<path d="M33.9632 12.4766H37.9711V17.0959C37.9711 17.9338 37.8353 18.7716 37.5862 19.5641C37.3371 20.334 36.9295 21.0359 36.3861 21.6473C35.82 22.2813 35.118 22.7569 34.3255 23.0965C33.3745 23.4815 32.3782 23.64 31.3592 23.6173C30.3176 23.64 29.2986 23.4588 28.3249 23.0965C27.5324 22.7795 26.8305 22.304 26.2644 21.67C25.7209 21.0812 25.3133 20.3566 25.0869 19.5868C24.8378 18.7716 24.7246 17.9338 24.7246 17.0733V2.53607H28.9816V6.38549H31.0875V9.41975H28.9816V16.6431C28.9816 17.6847 29.1628 18.4772 29.5477 19.0433C29.9326 19.6094 30.5667 19.8811 31.4498 19.8811C32.3102 19.8811 32.9443 19.6094 33.3518 19.0659C33.7594 18.5225 33.9632 17.73 33.9632 16.711V12.4766Z" fill="#BDE031"/>
<path d="M44.4019 0.973694H40.0996V23.1871H44.4019V0.973694Z" fill="#BDE031"/>
<path d="M35.9326 3.58244L33.0986 6.41644L35.8526 9.17039L38.6866 6.33638L35.9326 3.58244Z" fill="#BDE031"/>
<path d="M38.6505 39.5358L38.8543 38.6527C38.9902 38.1093 39.194 37.5885 39.443 37.0903C39.8506 36.2978 40.3488 35.5732 40.9602 34.9391C41.5942 34.2598 42.2735 33.6485 42.9981 33.0824C43.7453 32.4936 44.5379 31.9502 45.353 31.4067L47.8438 29.799C48.2967 29.5047 48.7269 29.1424 49.0666 28.7348C49.4063 28.3498 49.6327 27.897 49.7459 27.3988C49.8591 27.0365 49.8591 26.6289 49.7233 26.2666C49.5874 25.9949 49.2477 25.8364 48.7269 25.8364C47.8665 25.8364 47.3004 26.3798 47.0287 27.4441L46.6437 29.0291H41.2319L41.2998 28.5536C41.5263 27.6705 41.8206 26.8101 42.2282 25.9723C42.5905 25.225 43.0887 24.5683 43.7227 24.0475C44.4246 23.4814 45.2398 23.0739 46.1003 22.8248C47.2778 22.5078 48.4779 22.3719 49.678 22.3946C50.629 22.3719 51.58 22.4851 52.5084 22.7342C53.2104 22.9154 53.8444 23.255 54.3879 23.7079C54.8407 24.1155 55.1804 24.6589 55.3163 25.2477C55.4748 25.927 55.4521 26.6289 55.271 27.2856C55.0672 28.0781 54.7049 28.8027 54.2067 29.4367C53.6633 30.116 53.0519 30.7274 52.3726 31.2709C51.8291 31.7237 51.263 32.1313 50.6743 32.5163L48.976 33.6258C48.4326 33.9881 47.8891 34.3731 47.3457 34.758C46.8249 35.1429 46.3267 35.5732 45.8738 36.0487H52.9613L52.1235 39.4679L38.6505 39.5358Z" fill="white"/>
<path d="M84.3458 22.7115C83.1231 22.7115 82.1494 23.6852 82.1494 24.908C82.1494 26.1307 83.1231 27.1044 84.3458 27.1044C85.5686 27.1044 86.5423 26.1307 86.5423 24.908C86.5423 23.7079 85.5686 22.7115 84.3458 22.7115Z" fill="#D5DA33" stroke="white" stroke-width="0.25" stroke-miterlimit="10"/>
<path d="M81.2662 24.908C81.2662 24.1834 81.5153 23.4814 81.9908 22.9153H72.7069L71.8917 26.2893H79.2283C79.183 26.3798 79.1151 26.4478 79.0471 26.5383C78.9792 26.6289 78.8886 26.7421 78.7754 26.878L78.3678 27.3535L77.7564 28.0555C77.5074 28.3272 77.2356 28.6668 76.896 29.0291L75.6959 30.3651C75.0618 31.1124 74.4278 31.8822 73.8391 32.6295C73.2504 33.3767 72.6843 34.1693 72.1861 34.9618C71.6653 35.7543 71.2124 36.5468 70.7822 37.362C70.352 38.1772 69.9897 38.9924 69.6953 39.8528H75.56C75.877 38.8791 76.262 37.9508 76.7148 37.0224C77.1224 36.2072 77.5753 35.392 78.0508 34.6221C78.5263 33.8749 79.0018 33.1956 79.5 32.5616C79.9982 31.9275 80.4737 31.3162 80.9492 30.7501C81.4247 30.2066 81.8776 29.6858 82.3305 29.2103C82.7833 28.7348 83.1683 28.3045 83.5306 27.897C82.1719 27.5347 81.2662 26.2893 81.2662 24.908Z" fill="white"/>
<path d="M69.1964 33.739L68.4039 36.9771H67.3623L66.6603 39.8528H61.2258L61.9278 36.9771H53.9346L54.6365 34.1466L62.5844 22.9153H70.8041L68.1774 33.739H69.1964ZM59.7993 33.739H62.7203L64.5997 26.0402L59.7993 33.739Z" fill="white"/>
<path d="M75.0388 15.6921C74.5179 15.0354 73.8386 14.5372 73.0461 14.2429C72.3215 13.9711 71.5743 13.7447 70.827 13.5636C69.9892 13.3598 69.1061 13.1107 68.1777 12.8616C67.4984 12.7031 66.8191 12.454 66.1851 12.1144C65.7775 11.9106 65.5058 11.4803 65.5284 11.0048C65.5058 10.5519 65.7775 10.1444 66.1851 9.96321C66.7738 9.73678 67.4305 9.62356 68.0645 9.6462C69.0608 9.6462 69.7854 9.80471 70.2383 10.1217C70.6912 10.4387 70.9855 11.0048 71.0988 11.7974H75.2199C75.1067 10.0311 74.4953 8.69517 73.3858 7.78942C72.2762 6.88367 70.5327 6.4308 68.1777 6.4308C67.1135 6.40815 66.0492 6.52137 65.0303 6.7931C64.2604 6.99689 63.5358 7.33654 62.9018 7.78942C62.3809 8.19701 61.9734 8.71781 61.7016 9.32919C61.4526 9.94057 61.3393 10.5972 61.3393 11.2539C61.3393 11.9559 61.4978 12.6352 61.7922 13.2692C62.1545 13.9711 62.7206 14.5372 63.3999 14.9222C64.0566 15.3298 64.7585 15.6694 65.5058 15.8732C66.3436 16.1449 67.4305 16.4393 68.8117 16.7563C69.4458 16.9148 70.0571 17.1186 70.6459 17.3903C71.144 17.5941 71.4384 18.0697 71.4158 18.6131C71.4384 19.1792 71.0988 19.7226 70.5553 19.9264C69.9213 20.1982 69.242 20.3114 68.54 20.3114C67.4758 20.3114 66.6606 20.1076 66.0719 19.6774C65.4831 19.2698 65.1435 18.6131 65.1888 17.8885H60.7506H56.6974C56.5389 18.4546 56.0634 19.3603 55.5199 19.6774C54.9538 19.9944 54.2972 20.1755 53.6631 20.1529C52.6895 20.1982 51.7384 19.7906 51.1044 19.066C50.4477 18.3414 50.0854 17.3677 50.0402 16.1223H61.2488C61.2488 12.8842 60.6147 10.4614 59.3241 8.85367C58.0334 7.24597 56.1313 6.45344 53.6405 6.45344C52.5083 6.4308 51.3761 6.63459 50.3119 7.04218C49.3835 7.40448 48.5457 7.97057 47.8437 8.71781C47.1644 9.46505 46.621 10.3708 46.3039 11.3218C45.9416 12.4087 45.7605 13.5636 45.7831 14.7184C45.7831 17.6847 46.4625 19.9038 47.8437 21.3756C48.4098 21.3304 49.0212 21.2851 49.6552 21.2851C50.7195 21.2624 51.7837 21.3983 52.8027 21.67C53.6631 21.8964 54.4557 22.3267 55.135 22.8928C55.3161 23.0513 55.4746 23.2098 55.6105 23.3909C56.6295 23.2098 57.5805 22.8022 58.4183 22.2135C59.4599 21.4662 60.343 20.1302 60.8865 18.749C61.0903 19.9264 61.7243 20.9907 62.6527 21.7606H72.2309H74.3142C75.2652 20.8548 75.7407 19.6547 75.7407 18.1376C75.7407 17.1413 75.5143 16.3034 75.0388 15.6921ZM51.2856 10.8463C51.8743 10.2349 52.6668 9.89528 53.5273 9.89528C53.9349 9.89528 54.3651 9.98586 54.75 10.1217C55.135 10.2576 55.4973 10.484 55.8143 10.7784C56.1313 11.0954 56.3804 11.4803 56.5615 11.9106C56.7653 12.4087 56.8559 12.9522 56.8785 13.473H50.2439C50.3119 12.3408 50.6742 11.4803 51.2856 10.8463Z" fill="#BDE031"/>
</g>
<defs>
<clipPath id="clip0_318_46937">
<rect width="104" height="44.0872" fill="white"/>
</clipPath>
</defs>
</svg>
