<svg width="32" height="33" viewBox="0 0 32 33" fill="none" xmlns="http://www.w3.org/2000/svg">
<g clip-path="url(#clip0_345_764)">
<path d="M16 3.32852C20.275 3.32852 20.7813 3.34727 22.4625 3.42227C24.025 3.49102 24.8688 3.75352 25.4313 3.97227C26.175 4.25977 26.7125 4.60977 27.2688 5.16602C27.8313 5.72852 28.175 6.25977 28.4625 7.00352C28.6813 7.56602 28.9438 8.41602 29.0125 9.97227C29.0875 11.6598 29.1063 12.166 29.1063 16.4348C29.1063 20.7098 29.0875 21.216 29.0125 22.8973C28.9438 24.4598 28.6813 25.3035 28.4625 25.866C28.175 26.6098 27.825 27.1473 27.2688 27.7035C26.7063 28.266 26.175 28.6098 25.4313 28.8973C24.8688 29.116 24.0188 29.3785 22.4625 29.4473C20.775 29.5223 20.2688 29.541 16 29.541C11.725 29.541 11.2188 29.5223 9.5375 29.4473C7.975 29.3785 7.13125 29.116 6.56875 28.8973C5.825 28.6098 5.2875 28.2598 4.73125 27.7035C4.16875 27.141 3.825 26.6098 3.5375 25.866C3.31875 25.3035 3.05625 24.4535 2.9875 22.8973C2.9125 21.2098 2.89375 20.7035 2.89375 16.4348C2.89375 12.1598 2.9125 11.6535 2.9875 9.97227C3.05625 8.40977 3.31875 7.56602 3.5375 7.00352C3.825 6.25977 4.175 5.72227 4.73125 5.16602C5.29375 4.60352 5.825 4.25977 6.56875 3.97227C7.13125 3.75352 7.98125 3.49102 9.5375 3.42227C11.2188 3.34727 11.725 3.32852 16 3.32852ZM16 0.447266C11.6563 0.447266 11.1125 0.466016 9.40625 0.541016C7.70625 0.616016 6.5375 0.891016 5.525 1.28477C4.46875 1.69727 3.575 2.24102 2.6875 3.13477C1.79375 4.02227 1.25 4.91602 0.8375 5.96602C0.44375 6.98477 0.16875 8.14727 0.09375 9.84727C0.01875 11.5598 0 12.1035 0 16.4473C0 20.791 0.01875 21.3348 0.09375 23.041C0.16875 24.741 0.44375 25.9098 0.8375 26.9223C1.25 27.9785 1.79375 28.8723 2.6875 29.7598C3.575 30.6473 4.46875 31.1973 5.51875 31.6035C6.5375 31.9973 7.7 32.2723 9.4 32.3473C11.1063 32.4223 11.65 32.441 15.9938 32.441C20.3375 32.441 20.8813 32.4223 22.5875 32.3473C24.2875 32.2723 25.4563 31.9973 26.4688 31.6035C27.5188 31.1973 28.4125 30.6473 29.3 29.7598C30.1875 28.8723 30.7375 27.9785 31.1438 26.9285C31.5375 25.9098 31.8125 24.7473 31.8875 23.0473C31.9625 21.341 31.9813 20.7973 31.9813 16.4535C31.9813 12.1098 31.9625 11.566 31.8875 9.85977C31.8125 8.15977 31.5375 6.99102 31.1438 5.97852C30.75 4.91602 30.2063 4.02227 29.3125 3.13477C28.425 2.24727 27.5313 1.69727 26.4813 1.29102C25.4625 0.897266 24.3 0.622266 22.6 0.547266C20.8875 0.466016 20.3438 0.447266 16 0.447266Z" fill="#BDE031"/>
<path d="M16 8.22852C11.4625 8.22852 7.78125 11.9098 7.78125 16.4473C7.78125 20.9848 11.4625 24.666 16 24.666C20.5375 24.666 24.2188 20.9848 24.2188 16.4473C24.2188 11.9098 20.5375 8.22852 16 8.22852ZM16 21.7785C13.0563 21.7785 10.6687 19.391 10.6687 16.4473C10.6687 13.5035 13.0563 11.116 16 11.116C18.9438 11.116 21.3312 13.5035 21.3312 16.4473C21.3312 19.391 18.9438 21.7785 16 21.7785Z" fill="#BDE031"/>
<path d="M26.4625 7.90362C26.4625 8.96612 25.6 9.82237 24.5438 9.82237C23.4813 9.82237 22.625 8.95987 22.625 7.90362C22.625 6.84111 23.4875 5.98486 24.5438 5.98486C25.6 5.98486 26.4625 6.84736 26.4625 7.90362Z" fill="#BDE031"/>
</g>
<defs>
<clipPath id="clip0_345_764">
<rect width="32" height="32" fill="white" transform="translate(0 0.447266)"/>
</clipPath>
</defs>
</svg>
