<svg width="51" height="29" viewBox="0 0 51 29" fill="none" xmlns="http://www.w3.org/2000/svg">
<g clip-path="url(#clip0_345_671)">
<path d="M50.475 5.05371C50.475 2.29229 48.2364 0.0537109 45.475 0.0537109H5.48975C2.72833 0.0537109 0.489746 2.29229 0.489746 5.05371V23.8703C0.489746 26.6317 2.72832 28.8703 5.48975 28.8703H45.475C48.2364 28.8703 50.475 26.6317 50.475 23.8703V5.05371Z" fill="white"/>
<path d="M40.6057 18.0662V17.7175H40.4894L40.3731 17.9499L40.2569 17.7175H40.1406V18.0662H40.1987V17.7757L40.315 18.0081H40.3731L40.4894 17.7757V18.0662H40.6057ZM40.0243 18.0662V17.7757H40.1406V17.7175H39.8499V17.7757H39.9662V18.0662H40.0243Z" fill="#0099DF"/>
<path d="M29.5724 19.6961H21.2015V4.62866H29.5724V19.6961Z" fill="#6C6BBD"/>
<path d="M21.7365 12.1694C21.7365 9.0885 23.1897 6.41449 25.3986 4.61245C23.7709 3.33358 21.7365 2.57788 19.4693 2.57788C14.1795 2.57788 9.87781 6.87954 9.87781 12.1694C9.87781 17.4593 14.1795 21.7609 19.4693 21.7609C21.6783 21.7609 23.7709 21.0053 25.3986 19.7265C23.1897 17.9244 21.7365 15.1921 21.7365 12.1694Z" fill="#EB001B"/>
<path d="M40.8846 12.1694C40.8846 17.4593 36.583 21.7609 31.2931 21.7609C29.0842 21.7609 26.9914 21.0053 25.3638 19.7265C27.5728 17.9825 29.026 15.2503 29.026 12.1694C29.026 9.0885 27.5728 6.41449 25.3638 4.61245C26.9914 3.33358 29.026 2.57788 31.2931 2.57788C36.6411 2.57788 40.8846 6.87954 40.8846 12.1694Z" fill="#0099DF"/>
<path d="M32.4442 23.9421C32.5604 23.9421 32.7348 23.9421 32.8511 24.0002L32.6767 24.5235C32.5604 24.4653 32.4442 24.4653 32.3279 24.4653C31.9791 24.4653 31.8047 24.6979 31.8047 25.1047V26.5579H31.2234V24.0002H31.7465V24.2909C31.9209 24.1165 32.0953 23.9421 32.4442 23.9421ZM30.3514 24.5235H29.4214V25.686C29.4214 25.9186 29.5376 26.093 29.7702 26.093C29.8865 26.093 30.1189 26.0349 30.2351 25.9767L30.4095 26.4417C30.2351 26.5579 29.9446 26.6161 29.712 26.6161C29.0726 26.6161 28.84 26.2674 28.84 25.686V24.5235H28.3169V24.0002H28.84V23.2446H29.4214V24.0002H30.3514V24.5235ZM23.3177 25.0465C23.3758 24.6979 23.6083 24.4072 24.0151 24.4072C24.364 24.4072 24.5965 24.6397 24.6546 25.0465H23.3177ZM25.1779 25.2791C25.1779 24.4653 24.6546 23.9421 23.957 23.9421C23.2014 23.9421 22.6782 24.4653 22.6782 25.2791C22.6782 26.093 23.2014 26.6161 23.957 26.6161C24.364 26.6161 24.7128 26.4998 25.0035 26.2674L24.7128 25.8604C24.4802 26.0349 24.2477 26.1511 23.957 26.1511C23.6083 26.1511 23.2595 25.9767 23.2014 25.5116H25.1197C25.1779 25.3954 25.1779 25.3372 25.1779 25.2791ZM27.6193 24.6397C27.4449 24.5235 27.1542 24.4072 26.8055 24.4072C26.5149 24.4072 26.3404 24.5235 26.3404 24.6979C26.3404 24.8721 26.5149 24.9303 26.7474 24.9303L26.9798 24.9884C27.5612 25.0465 27.8518 25.2791 27.8518 25.7442C27.8518 26.2093 27.4449 26.5579 26.6893 26.5579C26.2823 26.5579 25.8754 26.4417 25.5847 26.2093L25.8172 25.8023C25.9916 25.9186 26.2823 26.093 26.6893 26.093C27.0961 26.093 27.2705 25.9767 27.2705 25.8023C27.2705 25.686 27.1542 25.5698 26.8055 25.5116L26.573 25.4535C25.9916 25.3954 25.7009 25.1047 25.7009 24.6979C25.7009 24.1747 26.1079 23.884 26.7474 23.884C27.1542 23.884 27.503 24.0002 27.7937 24.1747L27.6193 24.6397ZM34.4206 24.4653C34.3044 24.4653 34.1881 24.4653 34.13 24.5235C34.0137 24.5816 33.9556 24.6397 33.8974 24.6979C33.8393 24.756 33.7811 24.8721 33.723 24.9303C33.6649 25.0465 33.6649 25.1628 33.6649 25.2791C33.6649 25.3954 33.6649 25.5116 33.723 25.6279C33.7811 25.7442 33.8393 25.8023 33.8974 25.8604C33.9556 25.9186 34.0718 25.9767 34.13 26.0349C34.2462 26.093 34.3625 26.093 34.4206 26.093C34.4788 26.093 34.653 26.093 34.7112 26.0349C34.8274 25.9767 34.8856 25.9186 34.9437 25.8604C35.0019 25.8023 35.06 25.686 35.1181 25.6279C35.1763 25.5116 35.1763 25.3954 35.1763 25.2791C35.1763 25.1628 35.1763 25.0465 35.1181 24.9303C35.06 24.8142 35.0019 24.756 34.9437 24.6979C34.8856 24.6397 34.7693 24.5816 34.7112 24.5235C34.653 24.4653 34.5369 24.4653 34.4206 24.4653ZM34.4206 23.9421C34.595 23.9421 34.8274 24.0002 34.9437 24.0584C35.1181 24.1165 35.2344 24.2328 35.4088 24.3491C35.5251 24.4653 35.6414 24.6397 35.6995 24.756C35.7576 24.9303 35.8158 25.1047 35.8158 25.2791C35.8158 25.4535 35.7576 25.6279 35.6995 25.8023C35.6414 25.9767 35.5251 26.093 35.4088 26.2093C35.2925 26.3255 35.1181 26.4417 34.9437 26.4998C34.7693 26.5579 34.595 26.6161 34.4206 26.6161C34.2462 26.6161 34.0137 26.5579 33.8974 26.4998C33.723 26.4417 33.6067 26.3255 33.4905 26.2093C33.3742 26.093 33.2579 25.9186 33.1998 25.8023C33.1416 25.6279 33.0837 25.4535 33.0837 25.2791C33.0837 25.1047 33.1416 24.9303 33.1998 24.756C33.2579 24.5816 33.3742 24.4653 33.4905 24.3491C33.6067 24.2328 33.7811 24.1165 33.8974 24.0584C34.0718 24.0002 34.2462 23.9421 34.4206 23.9421ZM20.0623 25.2791C20.0623 24.8142 20.353 24.4653 20.8179 24.4653C21.283 24.4653 21.5737 24.8142 21.5737 25.2791C21.5737 25.7442 21.283 26.093 20.8179 26.093C20.353 26.093 20.0623 25.7442 20.0623 25.2791ZM22.0969 25.2791V24.0002H21.5156V24.2909C21.3412 24.0584 21.0505 23.9421 20.7017 23.9421C20.0042 23.9421 19.4228 24.5235 19.4228 25.2791C19.4228 26.0349 20.0042 26.6161 20.7017 26.6161C21.0505 26.6161 21.3412 26.4998 21.5156 26.2674V26.5579H22.0969V25.2791ZM19.016 26.5579V24.9884C19.016 24.4072 18.6091 24.0002 18.0277 24.0002C17.6789 24.0002 17.3884 24.1165 17.1558 24.4653C16.9814 24.1747 16.6907 24.0002 16.3419 24.0002C16.0512 24.0002 15.8188 24.0584 15.5863 24.4072V24.1165H15.0049V26.6742H15.5863V25.2791C15.5863 24.8142 15.8188 24.5816 16.2256 24.5816C16.5744 24.5816 16.807 24.8142 16.807 25.2791V26.6742H17.3884V25.2791C17.3884 24.8142 17.6207 24.5816 18.0277 24.5816C18.4347 24.5816 18.6091 24.8142 18.6091 25.2791V26.6742H19.016V26.5579Z" fill="#231F20"/>
<path d="M36.4318 26.3648V26.423H36.4898C36.4898 26.423 36.4898 26.423 36.5479 26.423C36.4898 26.3648 36.4898 26.3648 36.4318 26.3648ZM36.4898 26.3067C36.5479 26.3067 36.5479 26.3067 36.5479 26.3067V26.3648V26.423H36.4898L36.5479 26.5392H36.4898L36.4318 26.423V26.5392H36.3737V26.3067H36.4898ZM36.4898 26.6555H36.5479C36.5479 26.6555 36.6061 26.6555 36.6061 26.5974L36.6642 26.5392V26.4811V26.423C36.6642 26.423 36.6642 26.3648 36.6061 26.3648L36.5479 26.3067H36.4898H36.4318C36.4318 26.3067 36.3737 26.3067 36.3737 26.3648L36.3155 26.423V26.4811V26.5392C36.3155 26.5392 36.3155 26.5974 36.3737 26.5974L36.4318 26.6555C36.4318 26.6555 36.4318 26.6555 36.4898 26.6555ZM36.4898 26.1904C36.5479 26.1904 36.5479 26.1904 36.6061 26.1904C36.6642 26.1904 36.6642 26.2486 36.6642 26.2486L36.7223 26.3067C36.7223 26.3648 36.7223 26.3648 36.7223 26.423C36.7223 26.4811 36.7223 26.4811 36.7223 26.5392C36.7223 26.5974 36.6642 26.5974 36.6642 26.5974L36.6061 26.6555C36.5479 26.6555 36.5479 26.6555 36.4898 26.6555C36.4318 26.6555 36.4318 26.6555 36.3737 26.6555C36.3155 26.6555 36.3155 26.5974 36.3155 26.5974L36.2574 26.5392C36.2574 26.4811 36.2574 26.4811 36.2574 26.423C36.2574 26.3648 36.2574 26.3648 36.2574 26.3067C36.2574 26.2486 36.3155 26.2486 36.3155 26.2486L36.3737 26.1904C36.3737 26.1904 36.4318 26.1904 36.4898 26.1904Z" fill="#231F20"/>
</g>
<defs>
<clipPath id="clip0_345_671">
<rect width="50" height="28.8462" fill="white" transform="translate(0.474976 0.0241699)"/>
</clipPath>
</defs>
</svg>
