<svg width="51" height="29" viewBox="0 0 51 29" fill="none" xmlns="http://www.w3.org/2000/svg">
<g clip-path="url(#clip0_345_696)">
<path d="M50.4602 5.05371C50.4602 2.29228 48.2216 0.0537109 45.4602 0.0537109H5.47497C2.71355 0.0537109 0.474976 2.29229 0.474976 5.05371V23.8703C0.474976 26.6317 2.71355 28.8703 5.47498 28.8703H45.4602C48.2216 28.8703 50.4602 26.6317 50.4602 23.8703V5.05371Z" fill="white"/>
<path fill-rule="evenodd" clip-rule="evenodd" d="M40.3167 12.4355C40.3167 17.7389 36.02 22.0354 30.7346 22.0354C25.4492 22.0354 21.1526 17.7389 21.1526 12.4355C21.1526 7.13208 25.4312 2.83545 30.7346 2.83545C36.038 2.83545 40.3167 7.13208 40.3167 12.4355Z" fill="#F79F1A"/>
<path fill-rule="evenodd" clip-rule="evenodd" d="M28.4874 12.4355C28.4874 17.7389 24.1908 22.0354 18.9053 22.0354C13.62 22.0354 9.32336 17.7389 9.32336 12.4355C9.32336 7.13208 13.602 2.83545 18.9053 2.83545C24.2087 2.83545 28.4874 7.13208 28.4874 12.4355Z" fill="#EA001B"/>
<path fill-rule="evenodd" clip-rule="evenodd" d="M24.82 4.86694C22.5908 6.62873 21.1526 9.36132 21.1526 12.4355C21.1526 15.5096 22.5908 18.2423 24.82 20.004C27.0492 18.2423 28.4874 15.5096 28.4874 12.4355C28.4874 9.36132 27.0492 6.62873 24.82 4.86694Z" fill="#FF5F01"/>
<path d="M40.3083 17.5223V17.1797H40.2168L40.1026 17.4081L39.9886 17.1797H39.8972V17.5223H39.9657V17.271L40.0571 17.4994H40.1256L40.2168 17.271V17.5223H40.3083ZM39.7373 17.5223V17.2482H39.8515V17.1797H39.5546V17.2482H39.6688V17.5223H39.7373Z" fill="#F79F1A"/>
<path d="M11.4447 26.7995H10.9053V24.2648H11.4447V24.5704C11.4447 24.5704 11.9121 24.1929 12.1997 24.1929C12.739 24.2108 13.0626 24.6602 13.0626 24.6602C13.0626 24.6602 13.3323 24.1929 13.9076 24.1929C14.7885 24.1929 14.9143 25.0017 14.9143 25.0017V26.7995H14.393V25.2176C14.393 25.2176 14.393 24.7321 13.8357 24.7321C13.2424 24.7321 13.1885 25.2176 13.1885 25.2176V26.7995H12.6492V25.2176C12.6492 25.2176 12.5952 24.7142 12.1098 24.7142C11.4626 24.7142 11.4626 25.2176 11.4626 25.2176L11.4447 26.7995Z" fill="black"/>
<path d="M28.002 24.1929C27.7323 24.1929 27.247 24.5704 27.247 24.5704V24.2648H26.7076V26.7995H27.247L27.2289 25.2176C27.2289 25.2176 27.247 24.7142 27.8761 24.7142C28.002 24.7142 28.0918 24.7501 28.1637 24.7861L28.3436 24.3007C28.2536 24.2288 28.1278 24.1929 28.002 24.1929Z" fill="black"/>
<path d="M35.6605 24.1929C35.3908 24.1929 34.9054 24.5704 34.9054 24.5704V24.2648H34.3661V26.7995H34.9054L34.8874 25.2176C34.8874 25.2176 34.9054 24.7142 35.5346 24.7142C35.6605 24.7142 35.7503 24.7501 35.8223 24.7861L36.002 24.3007C35.9121 24.2288 35.7864 24.1929 35.6605 24.1929Z" fill="black"/>
<path d="M16.6581 24.1748C15.8492 24.1748 15.4177 24.9119 15.4177 25.5232C15.4177 26.1523 15.9031 26.8714 16.6942 26.8714C17.1436 26.8714 17.5211 26.5298 17.5211 26.5298V26.7816H18.0605V24.2467H17.5211V24.5704C17.5211 24.5704 17.1615 24.1748 16.6581 24.1748ZM16.7661 24.6961C17.1975 24.6961 17.5571 25.0736 17.5571 25.5411C17.5571 26.0085 17.1975 26.386 16.7661 26.386C16.3346 26.386 15.975 26.0085 15.975 25.5411C15.975 25.0736 16.3346 24.6961 16.7661 24.6961Z" fill="black"/>
<path d="M32.2806 24.1748C31.4717 24.1748 31.0402 24.9119 31.0402 25.5232C31.0402 26.1523 31.5256 26.8714 32.3166 26.8714C32.7661 26.8714 33.1436 26.5298 33.1436 26.5298V26.7816H33.683V24.2467H33.1436V24.5704C33.1256 24.5704 32.784 24.1748 32.2806 24.1748ZM32.3886 24.6961C32.82 24.6961 33.1796 25.0736 33.1796 25.5411C33.1796 26.0085 32.82 26.386 32.3886 26.386C31.9571 26.386 31.5975 26.0085 31.5975 25.5411C31.5975 25.0736 31.9571 24.6961 32.3886 24.6961Z" fill="black"/>
<path d="M37.4221 24.1748C36.6133 24.1748 36.1818 24.9119 36.1818 25.5231C36.1818 26.1523 36.6671 26.8714 37.4582 26.8714C37.9076 26.8714 38.2852 26.5298 38.2852 26.5298V26.7816H38.8245V23.24H38.2852V24.5703C38.2671 24.5703 37.9255 24.1748 37.4221 24.1748ZM37.5301 24.6961C37.9615 24.6961 38.3211 25.0736 38.3211 25.541C38.3211 26.0085 37.9615 26.386 37.5301 26.386C37.0986 26.386 36.739 26.0085 36.739 25.541C36.739 25.0736 37.0986 24.6961 37.5301 24.6961Z" fill="black"/>
<path d="M19.6784 26.8714C19.1211 26.8714 18.6177 26.5298 18.6177 26.5298L18.8515 26.1703C18.8515 26.1703 19.3368 26.386 19.6784 26.386C19.9121 26.386 20.2896 26.3141 20.2896 26.0804C20.2896 25.8467 19.6605 25.7748 19.6605 25.7748C19.6605 25.7748 18.7077 25.7567 18.7077 24.9658C18.7077 24.4624 19.193 24.1567 19.8043 24.1567C20.1637 24.1567 20.8109 24.4624 20.8109 24.4624L20.5414 24.876C20.5414 24.876 20.038 24.6782 19.7683 24.6601C19.5346 24.6601 19.2649 24.768 19.2649 24.9658C19.2649 25.5051 20.847 24.9298 20.847 26.0085C20.847 26.7456 20.1997 26.8714 19.6784 26.8714Z" fill="black"/>
<path d="M21.7278 23.5095V24.2467H21.2605V24.786H21.7278V26.0623C21.7278 26.0623 21.6919 26.9254 22.6087 26.9254C22.8605 26.9254 23.3638 26.7276 23.3638 26.7276L23.1481 26.1703C23.1481 26.1703 22.9503 26.332 22.7166 26.332C22.2852 26.3141 22.3031 26.0444 22.3031 26.0444V24.768H23.184V24.2288H22.3031V23.5095H21.7278Z" fill="black"/>
<path d="M24.9459 24.2107C24.0649 24.2107 23.6334 24.9298 23.6334 25.5591C23.6334 26.2063 24.029 26.9253 24.9998 26.9253C25.4133 26.9253 25.9886 26.5657 25.9886 26.5657L25.7368 26.1344C25.7368 26.1344 25.3414 26.4219 24.9998 26.4219C24.2987 26.4219 24.2627 25.7388 24.2627 25.7388H26.1143C26.1324 25.7208 26.2583 24.2107 24.9459 24.2107ZM24.874 24.7141C24.8919 24.7141 24.9099 24.7141 24.9459 24.7141C25.593 24.7141 25.593 25.3253 25.593 25.3253H24.2806C24.2627 25.3253 24.2447 24.75 24.874 24.7141Z" fill="black"/>
<path d="M30.483 26.1164L30.7346 26.6198C30.7346 26.6198 30.339 26.8714 29.8896 26.8714C28.9728 26.8714 28.4694 26.1883 28.4694 25.5232C28.4694 24.4985 29.2784 24.1929 29.8358 24.1929C30.339 24.1929 30.7705 24.4804 30.7705 24.4804L30.483 24.9838C30.483 24.9838 30.3211 24.7142 29.8177 24.7142C29.3324 24.7142 29.0627 25.1457 29.0627 25.5411C29.0627 25.9905 29.3683 26.3861 29.8177 26.3861C30.1773 26.3861 30.483 26.1164 30.483 26.1164Z" fill="black"/>
<path d="M39.9272 26.4526C39.8538 26.4526 39.7804 26.477 39.7315 26.526C39.6825 26.575 39.658 26.6239 39.658 26.6973C39.658 26.7707 39.6825 26.8196 39.7315 26.8686C39.7804 26.9176 39.8538 26.9421 39.9272 26.9421C40.0007 26.9421 40.0741 26.9176 40.123 26.8686C40.172 26.8196 40.1964 26.7707 40.1964 26.6973C40.1964 26.6239 40.172 26.575 40.123 26.526C40.0741 26.477 40.0007 26.4526 39.9272 26.4526ZM39.9272 26.8932C39.8782 26.8932 39.8294 26.8686 39.7804 26.8442C39.7315 26.7952 39.7315 26.7707 39.7315 26.6973C39.7315 26.6483 39.7559 26.5994 39.7804 26.5504C39.8294 26.5016 39.8538 26.5016 39.9272 26.5016C39.9762 26.5016 40.0251 26.526 40.0741 26.5504C40.123 26.5994 40.123 26.6239 40.123 26.6973C40.123 26.7463 40.0985 26.7952 40.0741 26.8442C40.0495 26.8932 40.0007 26.8932 39.9272 26.8932ZM39.9517 26.575H39.8538V26.8196H39.9028V26.7219H39.9272L40.0007 26.8196H40.0495L39.9762 26.7219C40.0007 26.7219 40.0251 26.7219 40.0251 26.6973C40.0251 26.6729 40.0495 26.6729 40.0495 26.6483C40.0495 26.6239 40.0495 26.5994 40.0251 26.5994C40.0007 26.575 39.9762 26.575 39.9517 26.575ZM39.9517 26.6239C39.9762 26.6239 39.9762 26.6239 39.9762 26.6239V26.6483V26.6729H39.9517H39.9028V26.5994H39.9517V26.6239Z" fill="black"/>
</g>
<defs>
<clipPath id="clip0_345_696">
<rect width="50" height="28.8462" fill="white" transform="translate(0.474976 0.0241699)"/>
</clipPath>
</defs>
</svg>
