<svg width="26" height="26" viewBox="0 0 26 26" fill="none" xmlns="http://www.w3.org/2000/svg">
<path d="M1 4.33333C1 15.7472 10.2528 25 21.6667 25C22.1816 25 22.6921 24.9812 23.1977 24.9441C23.7779 24.9016 24.0679 24.8804 24.332 24.7284C24.5507 24.6025 24.758 24.3793 24.8676 24.152C25 23.8776 25 23.5575 25 22.9173V19.1609C25 18.6225 25 18.3533 24.9113 18.1227C24.8332 17.9188 24.706 17.7373 24.5412 17.5941C24.3547 17.432 24.1016 17.34 23.5957 17.156L19.32 15.6012C18.7313 15.3872 18.4369 15.2801 18.1577 15.2983C17.9115 15.3143 17.6745 15.3984 17.4732 15.5411C17.2449 15.7028 17.0839 15.9713 16.7616 16.5085L15.6667 18.3333C12.1335 16.7332 9.2692 13.8652 7.66667 10.3333L9.49151 9.23843C10.0286 8.91617 10.2971 8.75504 10.4589 8.52675C10.6016 8.32544 10.6857 8.08849 10.7017 7.84227C10.7199 7.56303 10.6128 7.26871 10.3988 6.68007L8.84399 2.40428C8.66 1.89835 8.56801 1.64537 8.40589 1.4588C8.26268 1.29399 8.08119 1.16687 7.87736 1.0886C7.64661 1 7.37744 1 6.83909 1H3.08268C2.44251 1 2.12241 1 1.84797 1.13233C1.62067 1.24195 1.39752 1.44935 1.2716 1.66804C1.11957 1.93209 1.09833 2.22216 1.05585 2.80231C1.01884 3.30781 1 3.81837 1 4.33333Z" stroke="#393939" stroke-width="2" stroke-linecap="round" stroke-linejoin="round"/>
</svg>
