<svg width="32" height="33" viewBox="0 0 32 33" fill="none" xmlns="http://www.w3.org/2000/svg">
<g clip-path="url(#clip0_345_768)">
<path d="M16 32.4473C24.8366 32.4473 32 25.2838 32 16.4473C32 7.61071 24.8366 0.447266 16 0.447266C7.16344 0.447266 0 7.61071 0 16.4473C0 25.2838 7.16344 32.4473 16 32.4473Z" fill="#393939"/>
<path d="M16 0.447266C7.16379 0.447266 0 7.61105 0 16.4473C0 23.2292 4.21399 29.0234 10.1663 31.3543C10.0214 30.0901 9.90288 28.1411 10.2189 26.7584C10.5086 25.5073 12.0889 18.8045 12.0889 18.8045C12.0889 18.8045 11.6148 17.8432 11.6148 16.4341C11.6148 14.2086 12.9053 12.5493 14.5119 12.5493C15.8815 12.5493 16.5399 13.5765 16.5399 14.8012C16.5399 16.1707 15.6708 18.225 15.2099 20.1345C14.828 21.7279 16.0132 23.0316 17.5802 23.0316C20.4247 23.0316 22.6107 20.0292 22.6107 15.7098C22.6107 11.8777 19.8584 9.20447 15.921 9.20447C11.3646 9.20447 8.69136 12.6152 8.69136 16.1444C8.69136 17.5139 9.21811 18.9888 9.87654 19.7921C10.0082 19.9501 10.0214 20.095 9.98189 20.253C9.86337 20.7534 9.58683 21.8464 9.53416 22.0703C9.46831 22.36 9.29712 22.4259 8.99424 22.281C6.99259 21.346 5.74156 18.4357 5.74156 16.0785C5.74156 11.0349 9.40247 6.39953 16.316 6.39953C21.8601 6.39953 26.1794 10.3501 26.1794 15.644C26.1794 21.1617 22.7029 25.5995 17.8831 25.5995C16.2634 25.5995 14.7358 24.7567 14.2222 23.7559C14.2222 23.7559 13.4189 26.8111 13.2214 27.5617C12.8658 28.9576 11.8914 30.6958 11.2329 31.7625C12.7342 32.2234 14.3144 32.4736 15.9737 32.4736C24.8099 32.4736 31.9737 25.3098 31.9737 16.4736C32 7.61105 24.8362 0.447266 16 0.447266Z" fill="#BDE031"/>
</g>
<defs>
<clipPath id="clip0_345_768">
<rect width="32" height="32" fill="white" transform="translate(0 0.447266)"/>
</clipPath>
</defs>
</svg>
