<svg width="32" height="33" viewBox="0 0 32 33" fill="none" xmlns="http://www.w3.org/2000/svg">
<path d="M22.902 11.9986C24.9598 13.4749 27.4807 14.3435 30.2034 14.3435V9.08549C29.6881 9.0856 29.1742 9.03168 28.67 8.92449V13.0633C25.9476 13.0633 23.427 12.1947 21.3686 10.7186V21.4485C21.3686 26.8162 17.0328 31.1672 11.6845 31.1672C9.68892 31.1672 7.83412 30.5618 6.29333 29.5234C8.05188 31.3279 10.5043 32.4473 13.2175 32.4473C18.5661 32.4473 22.9022 28.0963 22.9022 22.7284V11.9986H22.902ZM24.7935 6.69401C23.7419 5.54098 23.0514 4.05091 22.902 2.40358V1.72729H21.4489C21.8147 3.82106 23.0622 5.60984 24.7935 6.69401ZM9.67612 25.4044C9.08855 24.6313 8.77103 23.6855 8.77245 22.713C8.77245 20.258 10.7557 18.2675 13.2024 18.2675C13.6584 18.2674 14.1116 18.3375 14.5462 18.4758V13.1004C14.0384 13.0305 13.5258 13.0009 13.0135 13.0117V17.1958C12.5786 17.0574 12.1252 16.9871 11.6691 16.9875C9.22232 16.9875 7.23922 18.9778 7.23922 21.4331C7.23922 23.1692 8.2305 24.6722 9.67612 25.4044Z" fill="#596C09"/>
<path d="M21.3686 10.7182C23.427 12.1943 25.9475 13.0629 28.67 13.0629V8.92414C27.1503 8.59929 25.805 7.80231 24.7935 6.69376C23.0621 5.60949 21.8147 3.8207 21.4489 1.72705H17.6321V22.7279C17.6235 25.1762 15.6437 27.1586 13.2022 27.1586C11.7634 27.1586 10.4853 26.4703 9.67577 25.4042C8.23025 24.672 7.23897 23.1689 7.23897 21.433C7.23897 18.9779 9.22207 16.9874 11.6688 16.9874C12.1376 16.9874 12.5894 17.0606 13.0133 17.1956V13.0116C7.75895 13.1206 3.5332 17.4291 3.5332 22.728C3.5332 25.3732 4.58551 27.7712 6.29342 29.5233C7.8342 30.5615 9.689 31.1671 11.6846 31.1671C17.0329 31.1671 21.3687 26.8158 21.3687 21.4483V10.7182H21.3686Z" fill="#BDE031"/>
<path d="M28.6701 8.92433V7.80524C27.2997 7.80733 25.9562 7.42218 24.7935 6.69384C25.8228 7.82468 27.1781 8.60442 28.6701 8.92433ZM21.4489 1.72724C21.414 1.52715 21.3872 1.32573 21.3686 1.12355V0.447266H16.0987V21.4483C16.0903 23.8963 14.1106 25.8787 11.6688 25.8787C10.952 25.8787 10.2752 25.7079 9.6758 25.4045C10.4853 26.4705 11.7635 27.1587 13.2022 27.1587C15.6435 27.1587 17.6236 25.1765 17.6321 22.7282V1.72724H21.4489ZM13.0135 13.0118V11.8205C12.5732 11.7601 12.1292 11.7297 11.6847 11.73C6.33589 11.7299 2 16.0811 2 21.4483C2 24.8133 3.70408 27.7788 6.29356 29.5232C4.58565 27.7713 3.53334 25.3732 3.53334 22.7281C3.53334 17.4293 7.75898 13.1207 13.0135 13.0118Z" fill="#BDE031"/>
</svg>
