<svg width="130" height="74" viewBox="0 0 130 74" fill="none" xmlns="http://www.w3.org/2000/svg">
<path fill-rule="evenodd" clip-rule="evenodd" d="M98.3186 10.8672L86.1392 23.1453C86.4703 23.7388 86.7279 24.3323 86.9855 24.9629L97.1411 14.725V18.7311H99.2753V14.5395L111.013 26.3725L109.357 28.0417L110.277 28.9691L111.933 27.2999L124.738 40.2086H120.654V42.3601H125.584L112.743 55.2688L111.197 53.748L110.277 54.6753L111.786 56.1962L99.2017 68.8823V63.8005H97.0676V68.6969L90.2971 61.9087L88.9724 63.244L98.2082 72.5547L128.786 41.7295L98.3186 10.8672ZM98.3186 69.8468L98.061 69.5871H98.5394L98.3186 69.8468Z" fill="#BDE031"/>
<path d="M16.19 21.3278H22.7029V28.895C22.7029 30.2675 22.4821 31.6399 22.0773 32.9382C21.6726 34.1994 21.0103 35.3493 20.1272 36.3509C19.2073 37.3895 18.0666 38.1685 16.7787 38.7249C15.2333 39.3555 13.6143 39.6152 11.9585 39.5781C10.2658 39.6152 8.61003 39.3184 7.0278 38.7249C5.73994 38.2056 4.59927 37.4266 3.67937 36.388C2.79627 35.4235 2.13394 34.2365 1.76598 32.9753C1.36123 31.6399 1.17725 30.2675 1.17725 28.8579V5.04346H8.09488V11.3495H11.5169V16.3201H8.09488V28.1531C8.09488 29.8594 8.38925 31.1577 9.01478 32.0851C9.64031 33.0124 10.6706 33.4575 12.1056 33.4575C13.5039 33.4575 14.5342 33.0124 15.1965 32.1222C15.8588 31.2319 16.19 29.9336 16.19 28.2644V21.3278Z" fill="#BDE031"/>
<path d="M33.1533 2.48389H26.1621V38.8732H33.1533V2.48389Z" fill="#BDE031"/>
<path d="M19.3904 6.75757L14.7852 11.4001L19.2603 15.9116L23.8656 11.269L19.3904 6.75757Z" fill="#BDE031"/>
<path d="M23.8071 65.6552L24.1383 64.2085C24.3591 63.3183 24.6902 62.4651 25.095 61.649C25.7573 60.3507 26.5668 59.1637 27.5603 58.1251C28.5906 57.0123 29.6945 56.0107 30.8719 55.0834C32.0862 54.1189 33.3741 53.2287 34.6987 52.3384L38.7463 49.7047C39.4822 49.2225 40.1813 48.629 40.7333 47.9613C41.2852 47.3307 41.6532 46.5888 41.8371 45.7727C42.0211 45.1792 42.0211 44.5115 41.8003 43.918C41.5796 43.4729 41.0276 43.2133 40.1813 43.2133C38.7831 43.2133 37.8632 44.1035 37.4216 45.8469L36.7961 48.4435H28.0019L28.1123 47.6645C28.4802 46.2179 28.9586 44.8083 29.6209 43.4358C30.2096 42.2117 31.0191 41.136 32.0494 40.2828C33.1901 39.3555 34.5147 38.6878 35.913 38.2797C37.8264 37.7604 39.7766 37.5379 41.7267 37.5749C43.2722 37.5379 44.8176 37.7233 46.3262 38.1314C47.4669 38.4281 48.4972 38.9845 49.3803 39.7264C50.1162 40.3941 50.6682 41.2844 50.8889 42.2488C51.1465 43.3616 51.1097 44.5115 50.8153 45.5873C50.4842 46.8856 49.8954 48.0726 49.0859 49.1112C48.2028 50.224 47.2093 51.2256 46.1055 52.1158C45.2224 52.8577 44.3025 53.5254 43.3458 54.156L40.5861 55.9736C39.703 56.5671 38.8199 57.1977 37.9368 57.8283C37.0905 58.4589 36.2809 59.1637 35.545 59.9427H47.0622L45.7007 65.5439L23.8071 65.6552Z" fill="#393939"/>
<path d="M98.0614 38.0942C96.0744 38.0942 94.4922 39.6893 94.4922 41.6924C94.4922 43.6954 96.0744 45.2905 98.0614 45.2905C100.048 45.2905 101.631 43.6954 101.631 41.6924C101.631 39.7264 100.048 38.0942 98.0614 38.0942Z" fill="#BDE031" stroke="#010101" stroke-width="0.25" stroke-miterlimit="10"/>
<path d="M93.0571 41.6925C93.0571 40.5055 93.4619 39.3556 94.2346 38.4282H79.1483L77.8236 43.9552H89.7455C89.6719 44.1036 89.5615 44.2149 89.4511 44.3633C89.3407 44.5117 89.1935 44.6971 89.0095 44.9197L88.3472 45.6987L87.3537 46.8486C86.949 47.2937 86.5074 47.8501 85.9555 48.4436L84.0053 50.6322C82.975 51.8563 81.9447 53.1175 80.988 54.3416C80.0314 55.5657 79.1115 56.864 78.3019 58.1623C77.4556 59.4606 76.7197 60.7589 76.0206 62.0943C75.3215 63.4296 74.7327 64.765 74.2544 66.1746H83.7845C84.2997 64.5796 84.9252 63.0587 85.6611 61.5378C86.3235 60.2025 87.0594 58.8671 87.8321 57.6059C88.6048 56.3818 89.3775 55.2689 90.187 54.2303C90.9965 53.1917 91.7692 52.1901 92.542 51.2628C93.3147 50.3725 94.0506 49.5194 94.7865 48.7404C95.5224 47.9614 96.148 47.2566 96.7367 46.5889C94.5289 45.9954 93.0571 43.9552 93.0571 41.6925Z" fill="#393939"/>
<path d="M73.4445 56.1592L72.1566 61.4637H70.464L69.3234 66.1746H60.4923L61.633 61.4637H48.644L49.7847 56.8269L62.7001 38.4282H76.057L71.7887 56.1592H73.4445ZM58.1742 56.1592H62.9209L65.9749 43.5472L58.1742 56.1592Z" fill="#393939"/>
<path d="M82.9379 26.5951C82.0916 25.5193 80.9878 24.7033 79.6999 24.221C78.5224 23.7759 77.3082 23.405 76.0939 23.1082C74.7325 22.7744 73.2974 22.3663 71.7888 21.9583C70.6849 21.6986 69.581 21.2906 68.5507 20.7342C67.8884 20.4003 67.4469 19.6955 67.4837 18.9166C67.4469 18.1747 67.8884 17.507 68.5507 17.2102C69.5074 16.8393 70.5745 16.6538 71.6048 16.6909C73.2238 16.6909 74.4013 16.9506 75.1372 17.4699C75.8731 17.9892 76.3515 18.9166 76.5355 20.2149H83.2323C83.0483 17.3215 82.0549 15.133 80.2518 13.6492C78.4488 12.1654 75.6156 11.4236 71.7888 11.4236C70.0594 11.3865 68.33 11.5719 66.6741 12.0171C65.4231 12.3509 64.2456 12.9073 63.2153 13.6492C62.369 14.3169 61.7067 15.1701 61.2651 16.1716C60.8604 17.1731 60.6764 18.2489 60.6764 19.3246C60.6764 20.4745 60.934 21.5873 61.4123 22.626C62.0011 23.7759 62.921 24.7033 64.0248 25.3339C65.0919 26.0015 66.2326 26.558 67.4469 26.8918C68.8083 27.3369 70.5745 27.8192 72.8191 28.3385C73.8494 28.5981 74.8428 28.932 75.7995 29.3771C76.6091 29.711 77.0874 30.4899 77.0506 31.3802C77.0874 32.3075 76.5355 33.1978 75.6524 33.5317C74.6221 33.9768 73.5182 34.1623 72.3775 34.1623C70.6481 34.1623 69.3235 33.8284 68.3668 33.1236C67.4101 32.4559 66.8581 31.3802 66.9317 30.1932H59.7197H53.1332C52.8757 31.1205 52.103 32.6043 51.2199 33.1236C50.3 33.6429 49.2329 33.9397 48.2026 33.9026C46.6204 33.9768 45.0749 33.3091 44.0446 32.1221C42.9776 30.9351 42.3888 29.34 42.3152 27.2998H60.5292C60.5292 21.9954 59.4989 18.0263 57.4016 15.3926C55.3042 12.7589 52.2133 11.4607 48.1658 11.4607C46.326 11.4236 44.4862 11.7574 42.7568 12.4251C41.2482 13.0186 39.8867 13.946 38.746 15.1701C37.6422 16.3942 36.7591 17.8779 36.2439 19.4359C35.6552 21.2164 35.3608 23.1082 35.3976 25C35.3976 29.8593 36.5015 33.4946 38.746 35.9057C39.6659 35.8315 40.6594 35.7573 41.6897 35.7573C43.4191 35.7202 45.1485 35.9428 46.8043 36.3879C48.2026 36.7588 49.4904 37.4636 50.5943 38.391C50.8887 38.6506 51.1463 38.9103 51.367 39.2071C53.0229 38.9103 54.5683 38.2426 55.9297 37.2782C57.6223 36.0541 59.0574 33.8655 59.9405 31.6028C60.2717 33.5317 61.3019 35.2751 62.8106 36.5363H78.3753H81.7605C83.3059 35.0525 84.0786 33.0865 84.0786 30.6012C84.0786 28.9691 83.7107 27.5966 82.9379 26.5951ZM44.339 18.6569C45.2957 17.6554 46.5836 17.099 47.9818 17.099C48.6441 17.099 49.3433 17.2473 49.9688 17.4699C50.5943 17.6925 51.1831 18.0634 51.6982 18.5456C52.2133 19.0649 52.6181 19.6955 52.9125 20.4003C53.2436 21.2164 53.3908 22.1067 53.4276 22.9598H42.6464C42.7568 21.1051 43.3455 19.6955 44.339 18.6569Z" fill="#BDE031"/>
</svg>
