<svg width="26" height="26" viewBox="0 0 26 26" fill="none" xmlns="http://www.w3.org/2000/svg">
<path d="M23.6667 10L21.686 21.1414C21.4416 22.5159 21.3195 23.2032 21.0005 23.7172C20.7192 24.1705 20.332 24.5275 19.8817 24.7489C19.3711 25 18.7481 25 17.5021 25H8.49783C7.25187 25 6.62888 25 6.11825 24.7489C5.66796 24.5275 5.2808 24.1705 4.99952 23.7172C4.68055 23.2032 4.55837 22.5159 4.31401 21.1414L2.33333 10M23.6667 10H21M23.6667 10H25M2.33333 10H1M2.33333 10H5M21 10H5M21 10L17 1M5 10L9 1M9 14.5V19M13 14.5V19M17 14.5V19" stroke="#393939" stroke-width="2" stroke-linecap="round" stroke-linejoin="round"/>
</svg>
