<svg width="26" height="27" viewBox="0 0 26 27" fill="none" xmlns="http://www.w3.org/2000/svg">
<path d="M23.6667 10.5L21.686 21.6414C21.4416 23.0159 21.3195 23.7032 21.0005 24.2172C20.7192 24.6705 20.332 25.0275 19.8817 25.2489C19.3711 25.5 18.7481 25.5 17.5021 25.5H8.49783C7.25187 25.5 6.62888 25.5 6.11825 25.2489C5.66796 25.0275 5.2808 24.6705 4.99952 24.2172C4.68055 23.7032 4.55837 23.0159 4.31401 21.6414L2.33333 10.5M23.6667 10.5H21M23.6667 10.5H25M2.33333 10.5H1M2.33333 10.5H5M21 10.5H5M21 10.5L17 1.5M5 10.5L9 1.5M9 15V19.5M13 15V19.5M17 15V19.5" stroke="#393939" stroke-width="2" stroke-linecap="round" stroke-linejoin="round"/>
</svg>
