<svg width="51" height="29" viewBox="0 0 51 29" fill="none" xmlns="http://www.w3.org/2000/svg">
<g clip-path="url(#clip0_345_667)">
<path d="M50.416 5.05371C50.416 2.29229 48.1774 0.0537109 45.416 0.0537109H5.57825C2.81682 0.0537109 0.578247 2.29229 0.578247 5.05371V23.7853C0.578247 26.5467 2.81682 28.7853 5.57825 28.7853H45.416C48.1774 28.7853 50.416 26.5467 50.416 23.7853V5.05371Z" fill="white"/>
<path fill-rule="evenodd" clip-rule="evenodd" d="M21.5075 8.4312L19.4721 20.9091H22.7169L24.7523 8.4312H21.5075ZM16.7434 8.4312L13.6461 17.0153L13.2774 15.1716L13.2036 14.7586C12.8349 13.9474 11.9647 12.4135 10.3275 11.1008C9.84078 10.7173 9.35406 10.3781 8.88208 10.0979L11.6992 20.9091H15.0915L20.239 8.4312H16.7434ZM29.4278 11.8973C29.4278 10.4813 32.5989 10.6731 33.9853 11.44L34.4426 8.75568C34.4426 8.75568 33.0119 8.20996 31.5222 8.20996C29.9145 8.20996 26.0797 8.91793 26.0797 12.3398C26.0797 15.5698 30.5782 15.5993 30.5782 17.2955C30.5782 18.9917 26.5517 18.6819 25.2243 17.62L24.7375 20.4224C24.7375 20.4224 26.183 21.1303 28.4101 21.1303C30.6225 21.1303 33.9706 19.9799 33.9706 16.853C33.9558 13.6082 29.4278 13.2985 29.4278 11.8973ZM42.6874 8.4312H40.0768C38.8673 8.4312 38.5723 9.3604 38.5723 9.3604L33.7198 20.9091H37.1122L37.7906 19.0507H41.9204L42.3039 20.9091H45.2833L42.6874 8.4312ZM38.7198 16.499L40.4308 11.8235L41.3895 16.499H38.7198Z" fill="#005BAC"/>
<path fill-rule="evenodd" clip-rule="evenodd" d="M12.2301 9.61118C12.2301 9.61118 12.0974 8.49023 10.6667 8.49023H5.44547L5.38647 8.69672C5.38647 8.69672 7.89385 9.21295 10.298 11.1156C12.5989 12.9445 13.3511 15.2306 13.3511 15.2306L12.2301 9.61118Z" fill="#F6AC1D"/>
</g>
<defs>
<clipPath id="clip0_345_667">
<rect width="50" height="28.7611" fill="white" transform="translate(0.474976 0.0241699)"/>
</clipPath>
</defs>
</svg>
