<svg width="32" height="33" viewBox="0 0 32 33" fill="none" xmlns="http://www.w3.org/2000/svg">
<g clip-path="url(#clip0_345_777)">
<path d="M31.3627 8.69456C31.1817 8.01378 30.8252 7.39245 30.3287 6.89277C29.8322 6.39308 29.2132 6.03256 28.5336 5.84729C26.0317 5.17456 16.0317 5.17456 16.0317 5.17456C16.0317 5.17456 6.03174 5.17456 3.52992 5.84729C2.85031 6.03256 2.23128 6.39308 1.73479 6.89277C1.23829 7.39245 0.881746 8.01378 0.700829 8.69456C0.0317384 11.2073 0.0317383 16.4473 0.0317383 16.4473C0.0317383 16.4473 0.0317384 21.6873 0.700829 24.2C0.881746 24.8808 1.23829 25.5021 1.73479 26.0018C2.23128 26.5015 2.85031 26.862 3.52992 27.0473C6.03174 27.72 16.0317 27.72 16.0317 27.72C16.0317 27.72 26.0317 27.72 28.5336 27.0473C29.2132 26.862 29.8322 26.5015 30.3287 26.0018C30.8252 25.5021 31.1817 24.8808 31.3627 24.2C32.0317 21.6873 32.0317 16.4473 32.0317 16.4473C32.0317 16.4473 32.0317 11.2073 31.3627 8.69456Z" fill="#BDE031"/>
<path d="M12.759 21.2056V11.6892L21.1227 16.4474L12.759 21.2056Z" fill="#393939"/>
</g>
<defs>
<clipPath id="clip0_345_777">
<rect width="32" height="32" fill="white" transform="translate(0 0.447266)"/>
</clipPath>
</defs>
</svg>
